<svg width="52" height="48" viewBox="0 0 52 48" fill="none" xmlns="http://www.w3.org/2000/svg">
<path d="M19.7735 5.50021H35.1712C35.3568 5.4996 35.5396 5.54256 35.7031 5.62522C35.8665 5.70787 36.0055 5.8276 36.1074 5.97356C36.2093 6.11952 36.271 6.28711 36.2867 6.46113C36.3024 6.63516 36.2718 6.81013 36.1976 6.97021L30.1732 20.2042H40.3286C40.4136 20.205 40.4966 20.2287 40.5678 20.2724C40.6391 20.3162 40.6955 20.3781 40.7306 20.4511C40.7656 20.524 40.7778 20.6048 40.7657 20.684C40.7536 20.7632 40.7177 20.8376 40.6622 20.8982L19.952 42.3202C19.8954 42.3997 19.8105 42.4575 19.7126 42.4832C19.6146 42.5088 19.5102 42.5006 19.4182 42.4599C19.3261 42.4193 19.2526 42.3489 19.211 42.2617C19.1694 42.1744 19.1623 42.0759 19.1912 41.9842L21.2461 26.5042H11.7388C11.5542 26.5066 11.3718 26.4658 11.208 26.3856C11.0441 26.3054 10.904 26.1883 10.8 26.0447C10.696 25.901 10.6315 25.7354 10.6121 25.5626C10.5928 25.3897 10.6192 25.2151 10.6891 25.0542L18.7216 6.15021C18.8067 5.95446 18.9527 5.78748 19.1404 5.67114C19.3281 5.5548 19.5487 5.49652 19.7735 5.50021Z" stroke="black" stroke-width="3" stroke-linecap="round" stroke-linejoin="round"/>
</svg>
