<svg width="43" height="42" viewBox="0 0 43 42" fill="none" xmlns="http://www.w3.org/2000/svg">
<path d="M11.0629 17.1665C9.15595 19.206 7.95647 21.745 7.62499 24.4437C7.2935 27.1425 7.84584 29.8721 9.20805 32.2673C10.5703 34.6624 12.6774 36.6088 15.2473 37.8458C17.8172 39.0828 20.7272 39.5515 23.5879 39.1891C26.4486 38.8266 29.1234 37.6504 31.2543 35.8178C33.3851 33.9852 34.8704 31.5837 35.5111 28.9348C36.1519 26.2858 35.9176 23.5159 34.8397 20.9957C33.7618 18.4756 31.8916 16.3254 29.4795 14.8332C29.0073 18.9443 26.4101 21.5554 21.6879 22.6665C25.2295 15.9998 24.049 9.33317 18.1462 2.6665C18.1462 8.22206 15.7851 13.0554 11.0629 17.1665Z" stroke="white" stroke-width="4" stroke-linecap="round" stroke-linejoin="round"/>
</svg>
