<svg width="22" height="22" viewBox="0 0 22 22" fill="none" xmlns="http://www.w3.org/2000/svg">
<path fill-rule="evenodd" clip-rule="evenodd" d="M20.1668 10.9999C20.1668 16.0627 16.0629 20.1666 11.0002 20.1666C5.93741 20.1666 1.8335 16.0627 1.8335 10.9999C1.8335 5.93717 5.93741 1.83325 11.0002 1.83325C16.0629 1.83325 20.1668 5.93717 20.1668 10.9999ZM7.43525 14.5648C7.34932 14.4789 7.30105 14.3623 7.30105 14.2408C7.30105 14.1193 7.34932 14.0027 7.43525 13.9168L10.3521 10.9999L7.43525 8.08309C7.35176 7.99664 7.30556 7.88087 7.3066 7.76069C7.30765 7.64052 7.35585 7.52556 7.44083 7.44059C7.52581 7.35561 7.64076 7.3074 7.76094 7.30636C7.88111 7.30532 7.99689 7.35151 8.08333 7.435L11.0002 10.3518L13.917 7.435C14.0034 7.35151 14.1192 7.30532 14.2394 7.30636C14.3596 7.3074 14.4745 7.35561 14.5595 7.44059C14.6445 7.52556 14.6927 7.64052 14.6937 7.76069C14.6948 7.88087 14.6486 7.99664 14.5651 8.08309L11.6482 10.9999L14.5651 13.9168C14.6486 14.0032 14.6948 14.119 14.6937 14.2391C14.6927 14.3593 14.6445 14.4743 14.5595 14.5593C14.4745 14.6442 14.3596 14.6924 14.2394 14.6935C14.1192 14.6945 14.0034 14.6483 13.917 14.5648L11.0002 11.648L8.08333 14.5648C7.99738 14.6508 7.88082 14.699 7.75929 14.699C7.63775 14.699 7.5212 14.6508 7.43525 14.5648Z" fill="#FF2F00"/>
</svg>
